<mxfile host="app.diagrams.net" agent="Mozilla/5.0" version="24.7.17">
  <diagram name="議事録分割処理フロー" id="minutes-division-flow">
    <mxGraphModel dx="1434" dy="794" grid="1" gridSize="10" guides="1" tooltips="1" connect="1" arrows="1" fold="1" page="1" pageScale="1" pageWidth="827" pageHeight="1169" math="0" shadow="0">
      <root>
        <mxCell id="0" />
        <mxCell id="1" parent="0" />

        <!-- Title -->
        <mxCell id="title" value="議事録分割処理フロー" style="text;html=1;align=center;verticalAlign=middle;whiteSpace=wrap;rounded=0;fontSize=20;fontStyle=1;" vertex="1" parent="1">
          <mxGeometry x="280" y="20" width="300" height="40" as="geometry" />
        </mxCell>

        <!-- Start -->
        <mxCell id="start" value="開始" style="ellipse;whiteSpace=wrap;html=1;fillColor=#d5e8d4;strokeColor=#82b366;" vertex="1" parent="1">
          <mxGeometry x="360" y="80" width="120" height="60" as="geometry" />
        </mxCell>

        <!-- Input Source Decision -->
        <mxCell id="input-decision" value="入力ソースの判定" style="rhombus;whiteSpace=wrap;html=1;fillColor=#fff2cc;strokeColor=#d6b656;" vertex="1" parent="1">
          <mxGeometry x="340" y="170" width="160" height="80" as="geometry" />
        </mxCell>

        <!-- PDF Input -->
        <mxCell id="pdf-input" value="PDFファイル読み込み&lt;br&gt;(load_pdf_text)" style="shape=parallelogram;perimeter=parallelogramPerimeter;whiteSpace=wrap;html=1;fixedSize=1;fillColor=#dae8fc;strokeColor=#6c8ebf;" vertex="1" parent="1">
          <mxGeometry x="120" y="280" width="160" height="60" as="geometry" />
        </mxCell>

        <!-- GCS Input -->
        <mxCell id="gcs-input" value="GCSからテキスト取得&lt;br&gt;(gcs_storage.download_content)" style="shape=parallelogram;perimeter=parallelogramPerimeter;whiteSpace=wrap;html=1;fixedSize=1;fillColor=#dae8fc;strokeColor=#6c8ebf;" vertex="1" parent="1">
          <mxGeometry x="560" y="280" width="200" height="60" as="geometry" />
        </mxCell>

        <!-- Minutes Record Creation -->
        <mxCell id="minutes-record" value="minutesレコード作成/確認" style="rounded=0;whiteSpace=wrap;html=1;fillColor=#e1d5e7;strokeColor=#9673a6;" vertex="1" parent="1">
          <mxGeometry x="340" y="370" width="160" height="60" as="geometry" />
        </mxCell>

        <!-- Pre-processing -->
        <mxCell id="preprocess" value="前処理&lt;br&gt;(process_minutes)&lt;br&gt;・改行統一&lt;br&gt;・括弧統一&lt;br&gt;・スペース統一&lt;br&gt;・制御文字削除" style="rounded=0;whiteSpace=wrap;html=1;fillColor=#f8cecc;strokeColor=#b85450;" vertex="1" parent="1">
          <mxGeometry x="340" y="460" width="160" height="100" as="geometry" />
        </mxCell>

        <!-- LangGraph State Management -->
        <mxCell id="langgraph-box" value="" style="rounded=1;whiteSpace=wrap;html=1;fillColor=#f5f5f5;strokeColor=#666666;dashed=1;" vertex="1" parent="1">
          <mxGeometry x="80" y="590" width="680" height="420" as="geometry" />
        </mxCell>

        <mxCell id="langgraph-label" value="LangGraph State Management (MinutesProcessAgent)" style="text;html=1;align=center;verticalAlign=middle;whiteSpace=wrap;rounded=0;fontSize=14;fontStyle=1;" vertex="1" parent="1">
          <mxGeometry x="240" y="600" width="360" height="30" as="geometry" />
        </mxCell>

        <!-- Section Division -->
        <mxCell id="section-divide" value="セクション分割&lt;br&gt;(section_divide_run)&lt;br&gt;Gemini APIでキーワード抽出" style="rounded=0;whiteSpace=wrap;html=1;fillColor=#fff2cc;strokeColor=#d6b656;" vertex="1" parent="1">
          <mxGeometry x="120" y="650" width="180" height="80" as="geometry" />
        </mxCell>

        <!-- Do Divide -->
        <mxCell id="do-divide" value="キーワードで分割&lt;br&gt;(do_divide)&lt;br&gt;SectionStringList生成" style="rounded=0;whiteSpace=wrap;html=1;fillColor=#fff2cc;strokeColor=#d6b656;" vertex="1" parent="1">
          <mxGeometry x="340" y="650" width="160" height="80" as="geometry" />
        </mxCell>

        <!-- Check Length -->
        <mxCell id="check-length" value="文字数チェック&lt;br&gt;(check_length)&lt;br&gt;6000バイト超過確認" style="rounded=0;whiteSpace=wrap;html=1;fillColor=#fff2cc;strokeColor=#d6b656;" vertex="1" parent="1">
          <mxGeometry x="540" y="650" width="160" height="80" as="geometry" />
        </mxCell>

        <!-- Speech Division Loop -->
        <mxCell id="speech-divide-loop" value="発言者分割ループ&lt;br&gt;(divide_speech)&lt;br&gt;全セクション処理" style="rounded=0;whiteSpace=wrap;html=1;fillColor=#dae8fc;strokeColor=#6c8ebf;" vertex="1" parent="1">
          <mxGeometry x="340" y="770" width="160" height="80" as="geometry" />
        </mxCell>

        <!-- LLM Processing -->
        <mxCell id="llm-process" value="Gemini APIで&lt;br&gt;発言者と発言内容抽出&lt;br&gt;(speech_divide_run)" style="rounded=0;whiteSpace=wrap;html=1;fillColor=#d5e8d4;strokeColor=#82b366;" vertex="1" parent="1">
          <mxGeometry x="340" y="880" width="160" height="80" as="geometry" />
        </mxCell>

        <!-- Database Save -->
        <mxCell id="db-save" value="データベース保存&lt;br&gt;(save_to_database)&lt;br&gt;conversationsテーブル" style="shape=cylinder3;whiteSpace=wrap;html=1;boundedLbl=1;backgroundOutline=1;size=15;fillColor=#e1d5e7;strokeColor=#9673a6;" vertex="1" parent="1">
          <mxGeometry x="350" y="1040" width="140" height="80" as="geometry" />
        </mxCell>

        <!-- Display Status -->
        <mxCell id="display-status" value="処理結果表示&lt;br&gt;(display_database_status)" style="rounded=0;whiteSpace=wrap;html=1;fillColor=#d5e8d4;strokeColor=#82b366;" vertex="1" parent="1">
          <mxGeometry x="340" y="1150" width="160" height="60" as="geometry" />
        </mxCell>

        <!-- End -->
        <mxCell id="end" value="終了" style="ellipse;whiteSpace=wrap;html=1;fillColor=#d5e8d4;strokeColor=#82b366;" vertex="1" parent="1">
          <mxGeometry x="360" y="1240" width="120" height="60" as="geometry" />
        </mxCell>

        <!-- Arrows -->
        <mxCell id="arrow1" style="edgeStyle=orthogonalEdgeStyle;rounded=0;orthogonalLoop=1;jettySize=auto;html=1;" edge="1" parent="1" source="start" target="input-decision">
          <mxGeometry relative="1" as="geometry" />
        </mxCell>

        <mxCell id="arrow2" style="edgeStyle=orthogonalEdgeStyle;rounded=0;orthogonalLoop=1;jettySize=auto;html=1;" edge="1" parent="1" source="input-decision" target="pdf-input">
          <mxGeometry relative="1" as="geometry">
            <Array as="points">
              <mxPoint x="200" y="210" />
            </Array>
          </mxGeometry>
        </mxCell>
        <mxCell id="arrow2-label" value="PDFファイル" style="edgeLabel;html=1;align=center;verticalAlign=middle;resizable=0;points=[];" vertex="1" connectable="0" parent="arrow2">
          <mxGeometry x="-0.3" y="-1" relative="1" as="geometry">
            <mxPoint as="offset" />
          </mxGeometry>
        </mxCell>

        <mxCell id="arrow3" style="edgeStyle=orthogonalEdgeStyle;rounded=0;orthogonalLoop=1;jettySize=auto;html=1;" edge="1" parent="1" source="input-decision" target="gcs-input">
          <mxGeometry relative="1" as="geometry">
            <Array as="points">
              <mxPoint x="660" y="210" />
            </Array>
          </mxGeometry>
        </mxCell>
        <mxCell id="arrow3-label" value="meeting-id指定" style="edgeLabel;html=1;align=center;verticalAlign=middle;resizable=0;points=[];" vertex="1" connectable="0" parent="arrow3">
          <mxGeometry x="-0.3" y="-1" relative="1" as="geometry">
            <mxPoint as="offset" />
          </mxGeometry>
        </mxCell>

        <mxCell id="arrow4" style="edgeStyle=orthogonalEdgeStyle;rounded=0;orthogonalLoop=1;jettySize=auto;html=1;" edge="1" parent="1" source="pdf-input" target="minutes-record">
          <mxGeometry relative="1" as="geometry">
            <Array as="points">
              <mxPoint x="200" y="400" />
            </Array>
          </mxGeometry>
        </mxCell>

        <mxCell id="arrow5" style="edgeStyle=orthogonalEdgeStyle;rounded=0;orthogonalLoop=1;jettySize=auto;html=1;" edge="1" parent="1" source="gcs-input" target="minutes-record">
          <mxGeometry relative="1" as="geometry">
            <Array as="points">
              <mxPoint x="660" y="400" />
            </Array>
          </mxGeometry>
        </mxCell>

        <mxCell id="arrow6" style="edgeStyle=orthogonalEdgeStyle;rounded=0;orthogonalLoop=1;jettySize=auto;html=1;" edge="1" parent="1" source="minutes-record" target="preprocess">
          <mxGeometry relative="1" as="geometry" />
        </mxCell>

        <mxCell id="arrow7" style="edgeStyle=orthogonalEdgeStyle;rounded=0;orthogonalLoop=1;jettySize=auto;html=1;" edge="1" parent="1" source="preprocess" target="section-divide">
          <mxGeometry relative="1" as="geometry">
            <Array as="points">
              <mxPoint x="420" y="590" />
              <mxPoint x="210" y="590" />
            </Array>
          </mxGeometry>
        </mxCell>

        <mxCell id="arrow8" style="edgeStyle=orthogonalEdgeStyle;rounded=0;orthogonalLoop=1;jettySize=auto;html=1;" edge="1" parent="1" source="section-divide" target="do-divide">
          <mxGeometry relative="1" as="geometry" />
        </mxCell>

        <mxCell id="arrow9" style="edgeStyle=orthogonalEdgeStyle;rounded=0;orthogonalLoop=1;jettySize=auto;html=1;" edge="1" parent="1" source="do-divide" target="check-length">
          <mxGeometry relative="1" as="geometry" />
        </mxCell>

        <mxCell id="arrow10" style="edgeStyle=orthogonalEdgeStyle;rounded=0;orthogonalLoop=1;jettySize=auto;html=1;" edge="1" parent="1" source="check-length" target="speech-divide-loop">
          <mxGeometry relative="1" as="geometry">
            <Array as="points">
              <mxPoint x="620" y="750" />
              <mxPoint x="420" y="750" />
            </Array>
          </mxGeometry>
        </mxCell>

        <mxCell id="arrow11" style="edgeStyle=orthogonalEdgeStyle;rounded=0;orthogonalLoop=1;jettySize=auto;html=1;" edge="1" parent="1" source="speech-divide-loop" target="llm-process">
          <mxGeometry relative="1" as="geometry" />
        </mxCell>

        <mxCell id="arrow12" style="edgeStyle=orthogonalEdgeStyle;rounded=0;orthogonalLoop=1;jettySize=auto;html=1;curved=1;" edge="1" parent="1" source="llm-process" target="speech-divide-loop">
          <mxGeometry relative="1" as="geometry">
            <Array as="points">
              <mxPoint x="540" y="920" />
              <mxPoint x="540" y="810" />
            </Array>
          </mxGeometry>
        </mxCell>
        <mxCell id="arrow12-label" value="次のセクション" style="edgeLabel;html=1;align=center;verticalAlign=middle;resizable=0;points=[];" vertex="1" connectable="0" parent="arrow12">
          <mxGeometry x="-0.2" y="1" relative="1" as="geometry">
            <mxPoint as="offset" />
          </mxGeometry>
        </mxCell>

        <mxCell id="arrow13" style="edgeStyle=orthogonalEdgeStyle;rounded=0;orthogonalLoop=1;jettySize=auto;html=1;" edge="1" parent="1" source="speech-divide-loop" target="db-save">
          <mxGeometry relative="1" as="geometry">
            <Array as="points">
              <mxPoint x="420" y="1020" />
              <mxPoint x="420" y="1020" />
            </Array>
          </mxGeometry>
        </mxCell>
        <mxCell id="arrow13-label" value="全セクション完了" style="edgeLabel;html=1;align=center;verticalAlign=middle;resizable=0;points=[];" vertex="1" connectable="0" parent="arrow13">
          <mxGeometry x="-0.2" y="1" relative="1" as="geometry">
            <mxPoint as="offset" />
          </mxGeometry>
        </mxCell>

        <mxCell id="arrow14" style="edgeStyle=orthogonalEdgeStyle;rounded=0;orthogonalLoop=1;jettySize=auto;html=1;" edge="1" parent="1" source="db-save" target="display-status">
          <mxGeometry relative="1" as="geometry" />
        </mxCell>

        <mxCell id="arrow15" style="edgeStyle=orthogonalEdgeStyle;rounded=0;orthogonalLoop=1;jettySize=auto;html=1;" edge="1" parent="1" source="display-status" target="end">
          <mxGeometry relative="1" as="geometry" />
        </mxCell>

        <!-- Legend -->
        <mxCell id="legend-box" value="" style="rounded=1;whiteSpace=wrap;html=1;fillColor=none;strokeColor=#000000;" vertex="1" parent="1">
          <mxGeometry x="800" y="80" width="200" height="280" as="geometry" />
        </mxCell>

        <mxCell id="legend-title" value="凡例" style="text;html=1;align=center;verticalAlign=middle;whiteSpace=wrap;rounded=0;fontSize=16;fontStyle=1;" vertex="1" parent="1">
          <mxGeometry x="850" y="90" width="100" height="30" as="geometry" />
        </mxCell>

        <mxCell id="legend-start" value="開始/終了" style="ellipse;whiteSpace=wrap;html=1;fillColor=#d5e8d4;strokeColor=#82b366;" vertex="1" parent="1">
          <mxGeometry x="820" y="130" width="80" height="40" as="geometry" />
        </mxCell>

        <mxCell id="legend-decision" value="判定" style="rhombus;whiteSpace=wrap;html=1;fillColor=#fff2cc;strokeColor=#d6b656;" vertex="1" parent="1">
          <mxGeometry x="820" y="180" width="80" height="40" as="geometry" />
        </mxCell>

        <mxCell id="legend-input" value="入力" style="shape=parallelogram;perimeter=parallelogramPerimeter;whiteSpace=wrap;html=1;fixedSize=1;fillColor=#dae8fc;strokeColor=#6c8ebf;" vertex="1" parent="1">
          <mxGeometry x="820" y="230" width="80" height="30" as="geometry" />
        </mxCell>

        <mxCell id="legend-process" value="処理" style="rounded=0;whiteSpace=wrap;html=1;fillColor=#f8cecc;strokeColor=#b85450;" vertex="1" parent="1">
          <mxGeometry x="820" y="270" width="80" height="30" as="geometry" />
        </mxCell>

        <mxCell id="legend-db" value="DB" style="shape=cylinder3;whiteSpace=wrap;html=1;boundedLbl=1;backgroundOutline=1;size=10;fillColor=#e1d5e7;strokeColor=#9673a6;" vertex="1" parent="1">
          <mxGeometry x="820" y="310" width="80" height="40" as="geometry" />
        </mxCell>

        <!-- Notes -->
        <mxCell id="notes-box" value="" style="rounded=1;whiteSpace=wrap;html=1;fillColor=#ffe6cc;strokeColor=#d79b00;" vertex="1" parent="1">
          <mxGeometry x="800" y="400" width="200" height="200" as="geometry" />
        </mxCell>

        <mxCell id="notes-title" value="主要コンポーネント" style="text;html=1;align=center;verticalAlign=middle;whiteSpace=wrap;rounded=0;fontSize=14;fontStyle=1;" vertex="1" parent="1">
          <mxGeometry x="830" y="410" width="140" height="30" as="geometry" />
        </mxCell>

        <mxCell id="notes-content" value="• MinutesDivider&lt;br&gt;  議事録分割処理クラス&lt;br&gt;&lt;br&gt;• MinutesProcessAgent&lt;br&gt;  LangGraphベースの&lt;br&gt;  ステート管理&lt;br&gt;&lt;br&gt;• Gemini API&lt;br&gt;  キーワード抽出と&lt;br&gt;  発言者識別に使用" style="text;html=1;align=left;verticalAlign=top;whiteSpace=wrap;rounded=0;fontSize=12;" vertex="1" parent="1">
          <mxGeometry x="810" y="450" width="180" height="140" as="geometry" />
        </mxCell>

      </root>
    </mxGraphModel>
  </diagram>
</mxfile>
